<svg width="15" height="15" viewBox="0 0 15 15" fill="none" xmlns="http://www.w3.org/2000/svg">
<path d="M11.0001 3.49996C10.0626 2.74996 8.81256 2.24996 7.50006 2.24996C6.68756 2.24996 5.93756 2.43746 5.25006 2.74996C4.93756 2.87496 4.62506 3.06246 4.31256 3.24996C4.37506 4.06246 4.37506 4.62496 4.37506 4.81246V4.87496C4.68756 4.56246 5.00006 4.31246 5.37506 4.12496C6.00006 3.74996 6.75006 3.56246 7.56256 3.56246C9.00006 3.56246 10.2501 4.24996 11.0626 5.31246C11.6251 6.06246 12.0001 6.99996 12.0001 7.99996C12.0001 8.99996 11.6876 9.93746 11.0626 10.6875C10.2501 11.75 9.00006 12.4375 7.56256 12.4375C6.06256 12.4375 4.68756 11.6875 3.93756 10.5C3.43756 9.81246 3.12506 8.93746 3.12506 7.99996C3.12506 7.24996 3.31256 6.56246 3.62506 5.93746C3.31256 6.06246 3.00006 6.24996 2.87506 6.31246L2.62506 6.43746L2.37506 6.31246C2.31256 6.31246 2.18756 6.24996 2.06256 6.12496C1.87506 6.68746 1.75006 7.31246 1.75006 7.87496C1.75006 8.74996 1.93756 9.62496 2.31256 10.375C2.43756 8.99996 2.50006 7.87496 2.56256 7.24996C2.62506 7.99996 2.75006 9.56246 2.87506 11.3125C3.18756 11.75 3.56256 12.0625 3.93756 12.4375C4.87506 13.1875 6.12506 13.625 7.43756 13.625C8.75006 13.625 10.0001 13.1875 10.9376 12.375C11.3126 12.0625 11.6251 11.75 11.9376 11.375V4.49996C11.6876 4.12496 11.3751 3.74996 11.0001 3.49996Z" fill=""/>
<path d="M7.50012 11.0626C5.81262 11.0626 4.43762 9.68757 4.43762 8.00007C4.43762 6.31257 5.75012 4.87507 7.50012 4.87507C9.25012 4.87507 10.5626 6.25007 10.5626 7.93757C10.5626 9.62507 9.18762 11.0626 7.50012 11.0626ZM7.50012 6.12507C6.50012 6.12507 5.68762 6.93757 5.68762 7.93757C5.68762 8.93757 6.50012 9.75007 7.50012 9.75007C8.50012 9.75007 9.31262 8.93757 9.31262 7.93757C9.31262 6.93757 8.50012 6.12507 7.50012 6.12507Z" fill="#788195"/>
<path d="M13.2501 8.6875C13.6251 9.5625 13.8751 10.5 13.9376 11.4375C14.0001 12.375 13.8126 13.3125 13.5001 14.25C13.3751 14.5 13.2501 14.6875 13.0001 14.8125C12.8126 14.9375 12.5626 15 12.3126 15C12.1876 15 12.0001 15 11.8751 14.9375C11.7501 14.875 11.5626 14.8125 11.5001 14.6875C11.3751 14.5625 11.3126 14.4375 11.2501 14.3125C11.1876 14.1875 11.1251 14 11.1251 13.875V0L11.7501 0.1875C13.4376 0.75 14.4376 1.625 14.8126 2.8125C15.3751 4.5625 14.3751 6.4375 13.4376 7.6875C13.3126 7.8125 13.2501 8 13.2501 8.125C13.1251 8.375 13.1876 8.5625 13.2501 8.6875Z" fill="#788195"/>
<path d="M5.3125 4.9375C5.1875 6 4.125 6.6875 3.625 7C3.6875 7.875 3.875 10.5625 4.125 13.25C4.125 13.5 4.125 13.75 4.0625 13.9375C4 14.1875 3.875 14.375 3.6875 14.5C3.625 14.5625 3.5625 14.625 3.4375 14.6875C3.1875 14.875 2.9375 15 2.6875 15C2.4375 15 2.125 14.875 1.9375 14.75C1.875 14.6875 1.75 14.625 1.6875 14.5625C1.5 14.375 1.375 14.1875 1.25 13.9375C1.1875 13.6875 1.125 13.5 1.1875 13.25C1.4375 10.625 1.625 7.9375 1.6875 7C1.1875 6.6875 0.125 5.9375 0 4.875C0 3.5625 0.0625 2.25 0.1875 0.875C0.25 0.625 0.3125 0.4375 0.5 0.3125C0.6875 0.1875 0.875 0.0625 1.125 0.0625H1.375V3.4375C1.375 3.8125 1.5625 4.125 1.875 4.125C1.9375 4.125 2 4.125 2.0625 4.0625L2.125 4L2.1875 0.4375V0.375C2.1875 0.25 2.25 0.1875 2.375 0.125C2.4375 0.0625 2.5625 0 2.625 0C2.75 0 2.8125 0.0625 2.9375 0.125C3 0.1875 3.0625 0.25 3.125 0.375V0.4375V4L3.1875 4.0625C3.25 4.125 3.3125 4.125 3.375 4.125C3.625 4.125 3.875 3.8125 3.875 3.4375V0.0625H4.125C4.375 0.0625 4.5625 0.1875 4.75 0.3125C4.9375 0.4375 5 0.6875 5.0625 0.9375C5.25 2.25 5.3125 3.5625 5.3125 4.9375Z" fill="#788195"/>
</svg>
