<svg width="16" height="16" viewBox="0 0 16 16" fill="none" xmlns="http://www.w3.org/2000/svg">
<path fill-rule="evenodd" clip-rule="evenodd" d="M7.648 7.648C6.58578 7.648 5.68289 7.27622 4.93933 6.53267C4.19578 5.78911 3.824 4.88622 3.824 3.824C3.824 2.76178 4.19578 1.85889 4.93933 1.11533C5.68289 0.371778 6.58578 0 7.648 0C8.71022 0 9.61311 0.371778 10.3567 1.11533C11.1002 1.85889 11.472 2.76178 11.472 3.824C11.472 4.88622 11.1002 5.78911 10.3567 6.53267C9.61311 7.27622 8.71022 7.648 7.648 7.648ZM7.648 9.56C9.24133 9.56 10.9143 9.91186 12.667 10.6156C14.4197 11.3193 15.296 12.2421 15.296 13.384V15.296H0V13.384C0 12.2421 0.876333 11.3193 2.629 10.6156C4.38167 9.91186 6.05467 9.56 7.648 9.56Z" fill="#788195"/>
</svg>
