<svg width="15" height="15" viewBox="0 0 15 15" fill="none" xmlns="http://www.w3.org/2000/svg">
<g clip-path="url(#clip0)">
<path d="M4.79421 0.944311V5.01211C4.79421 5.77482 4.14046 6.46489 3.37775 6.46489H1.77969C1.01697 6.46489 0.36322 5.81114 0.36322 5.01211V0.944311C0.36322 0.617435 0.617458 0.363197 0.944334 0.363197C1.27121 0.363197 1.52545 0.617435 1.52545 0.944311V3.7046C1.52545 3.81356 1.63441 3.92252 1.74337 3.92252C1.85232 3.92252 1.96128 3.81356 1.96128 3.7046V0.944311C1.9976 0.617435 2.25184 0.363197 2.57872 0.363197C2.90559 0.363197 3.19615 0.617435 3.19615 0.944311V3.7046C3.19615 3.81356 3.30511 3.92252 3.41407 3.92252C3.52303 3.92252 3.63199 3.81356 3.63199 3.7046V2.83293V2.79661V0.980631C3.63199 0.653754 3.88622 0.399517 4.2131 0.399517C4.53998 0.363197 4.79421 0.617435 4.79421 0.944311Z" fill="#788195"/>
<path d="M10.7143 9.80629C9.95161 10.8232 8.75306 11.4407 7.48187 11.4407C5.99277 11.4407 4.61262 10.569 3.92255 9.2615C3.92255 9.22518 3.88623 9.18886 3.88623 9.18886V6.90072C3.88623 6.82808 3.92255 6.75544 3.99519 6.71912C4.68526 6.42857 5.1211 5.70218 5.1211 4.97578V4.35835C5.1211 4.28571 5.15742 4.21307 5.19374 4.21307C5.84749 3.77724 6.64652 3.55932 7.40923 3.55932C8.60778 3.55932 9.77001 4.10411 10.5327 5.04842C10.569 5.08474 10.569 5.12106 10.569 5.15738V9.18886C10.569 9.33414 10.6054 9.47942 10.678 9.62469C10.787 9.69733 10.787 9.76997 10.7143 9.80629Z" fill="#788195"/>
<path d="M12.2761 10.2784V11.5859C12.2761 11.6223 12.2761 11.6949 12.2397 11.7312C11.0049 13.075 9.26153 13.8377 7.48187 13.8377C6.247 13.8377 5.04845 13.5109 4.0315 12.8571C3.95886 12.8208 3.95886 12.7482 3.95886 12.6755V10.4963C3.95886 10.4237 3.99518 10.3511 4.06782 10.3147C4.14046 10.2784 4.2131 10.3147 4.28574 10.3511C5.12109 11.2227 6.28332 11.7312 7.48187 11.7312C8.82569 11.7312 10.1332 11.0775 10.9686 10.0242C11.0412 9.95155 11.1138 9.91523 11.2228 9.95155C11.3681 10.0242 11.5133 10.0605 11.6586 10.0605H12.0581C12.2034 10.0605 12.2761 10.1695 12.2761 10.2784Z" fill="#788195"/>
<path d="M11.2228 2.5787C10.9686 3.05086 10.787 3.59565 10.678 4.17677C10.678 4.24941 10.6054 4.28573 10.569 4.32205C10.5327 4.32205 10.5327 4.32205 10.4964 4.32205C10.4601 4.32205 10.3874 4.32205 10.3511 4.28573C9.55209 3.59565 8.49882 3.19614 7.44555 3.19614C6.71916 3.19614 6.02908 3.34142 5.41165 3.66829C5.33901 3.70461 5.26637 3.70461 5.23005 3.66829C5.15741 3.63197 5.12109 3.55933 5.12109 3.48669V1.70703C5.12109 1.63439 5.15741 1.56175 5.26637 1.52544C5.95644 1.2712 6.71916 1.16224 7.44555 1.16224C8.75306 1.16224 10.0969 1.56175 11.1502 2.28815C11.2591 2.36079 11.2591 2.46975 11.2228 2.5787Z" fill="#788195"/>
<path d="M14.6368 0.980647V13.6562C14.6368 14.201 14.201 14.6731 13.6199 14.6731C13.0751 14.6731 12.6029 14.2373 12.6029 13.6562V9.73367H11.586C11.2591 9.73367 11.0049 9.47944 11.0049 9.15256V5.19372C11.0049 3.23246 11.9129 1.67072 13.7289 0.472172C13.9105 0.363213 14.1647 0.326894 14.3463 0.435853C14.4916 0.544812 14.6368 0.72641 14.6368 0.980647Z" fill="#788195"/>
<path d="M3.59567 6.97339V13.6199C3.59567 14.1647 3.15983 14.6368 2.57872 14.6368C2.03392 14.6368 1.56177 14.1647 1.56177 13.6199V6.97339C1.56177 6.86443 1.63441 6.79179 1.74337 6.79179H3.37775C3.48671 6.79179 3.59567 6.86443 3.59567 6.97339Z" fill="#788195"/>
</g>
<defs>
<clipPath id="clip0">
<rect width="15" height="15" fill="white"/>
</clipPath>
</defs>
</svg>
