<svg width="17" height="15" viewBox="0 0 17 15" fill="#fff" xmlns="http://www.w3.org/2000/svg">
<path d="M8.33333 3.33333V0H0V15H16.6667V3.33333H8.33333ZM3.33333 13.3333H1.66667V11.6667H3.33333V13.3333ZM3.33333 10H1.66667V8.33333H3.33333V10ZM3.33333 6.66667H1.66667V5H3.33333V6.66667ZM3.33333 3.33333H1.66667V1.66667H3.33333V3.33333ZM6.66667 13.3333H5V11.6667H6.66667V13.3333ZM6.66667 10H5V8.33333H6.66667V10ZM6.66667 6.66667H5V5H6.66667V6.66667ZM6.66667 3.33333H5V1.66667H6.66667V3.33333ZM15 13.3333H8.33333V11.6667H10V10H8.33333V8.33333H10V6.66667H8.33333V5H15V13.3333ZM13.3333 6.66667H11.6667V8.33333H13.3333V6.66667ZM13.3333 10H11.6667V11.6667H13.3333V10Z" fill="#788195"/>
</svg>
