<svg width="16" height="16" viewBox="0 0 16 16" fill="none" xmlns="http://www.w3.org/2000/svg">
<path d="M7.33326 0L7.19993 0.866667L6.99993 2.73333H0.799927L2.06659 0.266667C2.13326 0.0666667 2.26659 0 2.46659 0H7.33326Z" fill="#788195"/>
<path d="M14.9335 2.73333H8.80015L8.60015 0.866667L8.40015 0H13.3335C13.4668 0 13.6001 0.0666667 13.7335 0.2L14.9335 2.73333Z" fill="#788195"/>
<path d="M8.80002 3.5334V7.40007H6.93335V3.5334H0.666687V15.3334C0.666687 15.5334 0.866687 15.7334 1.06669 15.7334H14.6667C14.9334 15.7334 15.0667 15.5334 15.0667 15.3334V3.5334H8.80002ZM4.80002 14.0001C4.80002 14.2001 4.66669 14.4001 4.46669 14.4001H2.46669C2.20002 14.4001 2.00002 14.2001 2.00002 14.0001V12.2667C2.00002 12.0667 2.20002 11.8667 2.40002 11.8667H4.40002C4.66669 11.8667 4.80002 12.0667 4.80002 12.2667V14.0001ZM10.8667 12.2001H11.7334V13.0667H10.8667V12.2001ZM13.7334 14.4001H10.8667V13.5334H13.7334V14.4001ZM13.7334 13.0667H12.2V12.2001H13.7334V13.0667Z" fill="#788195"/>
<path d="M4.06676 12.7333H2.86676V13.6H4.06676V12.7333Z" fill="#788195"/>
</svg>
