<svg width="17" height="17" viewBox="0 0 17 17" fill="none" xmlns="http://www.w3.org/2000/svg">
<path d="M8.5 0C3.808 0 0 3.808 0 8.5C0 13.192 3.808 17 8.5 17C13.192 17 17 13.192 17 8.5C17 3.808 13.192 0 8.5 0ZM11.5685 5.389C12.478 5.389 13.209 6.12 13.209 7.0295C13.209 7.939 12.478 8.67 11.5685 8.67C10.659 8.67 9.928 7.939 9.928 7.0295C9.9195 6.12 10.659 5.389 11.5685 5.389ZM6.4685 4.046C7.5735 4.046 8.4745 4.947 8.4745 6.052C8.4745 7.157 7.5735 8.058 6.4685 8.058C5.3635 8.058 4.4625 7.157 4.4625 6.052C4.4625 4.9385 5.355 4.046 6.4685 4.046ZM6.4685 11.8065V14.994C4.4285 14.3565 2.8135 12.784 2.0995 10.778C2.992 9.826 5.219 9.3415 6.4685 9.3415C6.919 9.3415 7.4885 9.4095 8.0835 9.5285C6.6895 10.268 6.4685 11.2455 6.4685 11.8065ZM8.5 15.3C8.2705 15.3 8.0495 15.2915 7.8285 15.266V11.8065C7.8285 10.5995 10.3275 9.996 11.5685 9.996C12.478 9.996 14.0505 10.3275 14.8325 10.9735C13.838 13.498 11.3815 15.3 8.5 15.3Z" fill="#788195"/>
</svg>
